<?xml version="1.0" encoding="utf-8"?>
<!-- Generator: Adobe Illustrator 23.0.3, SVG Export Plug-In . SVG Version: 6.00 Build 0)  -->
<svg version="1.1" id="Calque_1" xmlns="http://www.w3.org/2000/svg" xmlns:xlink="http://www.w3.org/1999/xlink" x="0px" y="0px"
	 viewBox="0 0 198.4 269.3" style="enable-background:new 0 0 198.4 269.3;" xml:space="preserve">
<style type="text/css">
	.st0{fill:#8D41F9;}
</style>
<g>
	<g>
		<path class="st0" d="M125.5,159.2l-34.1-9.6l23.1-59.4h19.6l38.5,19.9l-4.2-31.6c-3.6,3.7-8.7,6.1-14.3,6.1
			c-11,0-19.9-8.9-19.9-19.9c0-11,8.9-19.9,19.9-19.9c3.1,0,6,0.7,8.5,1.9L153,17.7L123.8,0h-34L52.5,14L26.2,61.4L0,259.6
			l37.1-12.6l49.1,20.3l24.2-17.1l31.2,19.1l15.8-16.3l35.2,7.8l-14.2-106.7L125.5,159.2z M66.5,64.6c0-11,8.9-19.9,19.9-19.9
			c11,0,19.9,8.9,19.9,19.9c0,11-8.9,19.9-19.9,19.9C75.5,84.5,66.5,75.6,66.5,64.6z"/>
	</g>
</g>
<g>
	<ellipse class="st0" cx="184.6" cy="124.7" rx="13.8" ry="14"/>
</g>
</svg>
